<svg width="73" height="24" viewBox="0 0 73 24" fill="none" xmlns="http://www.w3.org/2000/svg">
<path d="M13.44 23C11.3707 23.2133 9.344 23.32 7.36 23.32C5.90933 23.32 4.74667 22.8827 3.872 22.008C2.99733 21.1333 2.56 19.9707 2.56 18.52V10.36H0.64V6.04H2.56L3.2 2.2H8.16V6.04H12.16V10.36H8.16V17.72C8.16 18.04 8.26667 18.3067 8.48 18.52C8.69333 18.7333 8.96 18.84 9.28 18.84H13.44V23ZM32.3488 18.2C32.3488 19.8 31.8901 21.0587 30.9728 21.976C30.0768 22.872 28.8287 23.32 27.2288 23.32H19.8688C18.2688 23.32 17.0101 22.872 16.0928 21.976C15.1968 21.0587 14.7488 19.8 14.7488 18.2V10.84C14.7488 9.24 15.1968 7.992 16.0928 7.096C17.0101 6.17867 18.2688 5.72 19.8688 5.72H27.2288C28.8287 5.72 30.0768 6.17867 30.9728 7.096C31.8901 7.992 32.3488 9.24 32.3488 10.84V18.2ZM26.7488 11.32C26.7488 10.4667 26.3221 10.04 25.4688 10.04H21.6288C20.7754 10.04 20.3488 10.4667 20.3488 11.32V17.72C20.3488 18.5733 20.7754 19 21.6288 19H25.4688C26.3221 19 26.7488 18.5733 26.7488 17.72V11.32ZM47.225 23L46.905 21.4C45.9023 22.0613 44.8677 22.552 43.801 22.872C42.7557 23.1707 41.8703 23.32 41.145 23.32H39.705C38.2543 23.32 37.0917 22.8827 36.217 22.008C35.3423 21.1333 34.905 19.9707 34.905 18.52V11.16C34.905 9.56 35.353 8.312 36.249 7.416C37.1663 6.49867 38.425 6.04 40.025 6.04H46.585V0.599998H52.185V23H47.225ZM42.745 18.68C43.8757 18.68 45.1557 18.4667 46.585 18.04V10.36H41.785C40.9317 10.36 40.505 10.7867 40.505 11.64V17.56C40.505 17.88 40.6117 18.1467 40.825 18.36C41.0383 18.5733 41.305 18.68 41.625 18.68H42.745ZM72.6613 18.2C72.6613 19.8 72.2026 21.0587 71.2853 21.976C70.3893 22.872 69.1412 23.32 67.5413 23.32H60.1813C58.5813 23.32 57.3226 22.872 56.4053 21.976C55.5093 21.0587 55.0613 19.8 55.0613 18.2V10.84C55.0613 9.24 55.5093 7.992 56.4053 7.096C57.3226 6.17867 58.5813 5.72 60.1813 5.72H67.5413C69.1412 5.72 70.3893 6.17867 71.2853 7.096C72.2026 7.992 72.6613 9.24 72.6613 10.84V18.2ZM67.0613 11.32C67.0613 10.4667 66.6346 10.04 65.7813 10.04H61.9413C61.0879 10.04 60.6613 10.4667 60.6613 11.32V17.72C60.6613 18.5733 61.0879 19 61.9413 19H65.7813C66.6346 19 67.0613 18.5733 67.0613 17.72V11.32Z" fill="white"/>
<path d="M0 15H73.9413V16.6H0V15Z" fill="white"/>
</svg>
